<svg width="32" height="32" viewBox="0 0 32 32" fill="none" xmlns="http://www.w3.org/2000/svg">
<!-- 背景 -->
<rect width="32" height="32" rx="6" fill="#007bff"/>

<!-- 水面 -->
<rect x="0" y="20" width="32" height="12" rx="0" fill="#4dabf7" opacity="0.7"/>

<!-- ボート1 -->
<path d="M6 18 L14 18 L13 16 L7 16 Z" fill="white"/>
<circle cx="10" cy="15" r="1.5" fill="#ffc107"/>

<!-- ボート2 -->
<path d="M16 16 L24 16 L23 14 L17 14 Z" fill="white" opacity="0.8"/>
<circle cx="20" cy="13" r="1.5" fill="#28a745"/>

<!-- ボート3 -->
<path d="M8 22 L16 22 L15 20 L9 20 Z" fill="white" opacity="0.6"/>
<circle cx="12" cy="19" r="1.5" fill="#dc3545"/>

<!-- 波 -->
<path d="M0 24 Q8 22 16 24 T32 24" stroke="white" stroke-width="1" fill="none" opacity="0.5"/>
<path d="M0 26 Q6 25 12 26 T24 26 Q28 25 32 26" stroke="white" stroke-width="1" fill="none" opacity="0.3"/>
</svg>